<?xml version="1.0" encoding="UTF-8"?>
<!DOCTYPE svg PUBLIC "-//W3C//DTD SVG 1.1//EN" "http://www.w3.org/Graphics/SVG/1.1/DTD/svg11.dtd">
<svg xmlns="http://www.w3.org/2000/svg" xmlns:xlink="http://www.w3.org/1999/xlink" version="1.1" width="128px" height="128px" viewBox="-0.5 -0.5 128 128" style="background-color: rgb(255, 255, 255);"><defs/><g><rect x="43" y="43" width="40" height="40" fill="rgb(255, 255, 255)" stroke="rgb(0, 0, 0)" stroke-width="4" pointer-events="all"/><path d="M 6.89 126.18 L -0.18 119.11 L 15.68 103.25 L 8.25 95.83 L 32.65 93.35 L 30.17 117.75 L 22.75 110.32 Z" fill="#000000" stroke="rgb(0, 0, 0)" stroke-miterlimit="10" pointer-events="all"/><path d="M 119.11 -0.18 L 126.18 6.89 L 110.32 22.75 L 117.75 30.17 L 93.35 32.65 L 95.83 8.25 L 103.25 15.68 Z" fill="#000000" stroke="rgb(0, 0, 0)" stroke-miterlimit="10" pointer-events="all"/><path d="M -0.18 6.89 L 6.89 -0.18 L 22.75 15.68 L 30.17 8.25 L 32.65 32.65 L 8.25 30.17 L 15.68 22.75 Z" fill="#000000" stroke="rgb(0, 0, 0)" stroke-miterlimit="10" pointer-events="all"/><path d="M 126.18 119.11 L 119.11 126.18 L 103.25 110.32 L 95.83 117.75 L 93.35 93.35 L 117.75 95.83 L 110.32 103.25 Z" fill="#000000" stroke="rgb(0, 0, 0)" stroke-miterlimit="10" pointer-events="all"/></g></svg>