<?xml version="1.0" encoding="UTF-8"?>
<!DOCTYPE svg PUBLIC "-//W3C//DTD SVG 1.1//EN" "http://www.w3.org/Graphics/SVG/1.1/DTD/svg11.dtd">
<svg xmlns="http://www.w3.org/2000/svg" xmlns:xlink="http://www.w3.org/1999/xlink" version="1.1" width="121px" height="121px" viewBox="-0.5 -0.5 121 121" style="background-color: rgb(255, 255, 255);"><defs/><g><rect x="40" y="40" width="40" height="40" fill="rgb(255, 255, 255)" stroke="rgb(0, 0, 0)" stroke-width="4" pointer-events="all"/><path d="M 93.89 33.18 L 86.82 26.11 L 102.68 10.25 L 95.25 2.83 L 119.65 0.35 L 117.17 24.75 L 109.75 17.32 Z" fill="#000000" stroke="rgb(0, 0, 0)" stroke-miterlimit="10" pointer-events="all"/><path d="M 26.11 86.82 L 33.18 93.89 L 17.32 109.75 L 24.75 117.17 L 0.35 119.65 L 2.83 95.25 L 10.25 102.68 Z" fill="#000000" stroke="rgb(0, 0, 0)" stroke-miterlimit="10" pointer-events="all"/><path d="M 86.82 93.89 L 93.89 86.82 L 109.75 102.68 L 117.17 95.25 L 119.65 119.65 L 95.25 117.17 L 102.68 109.75 Z" fill="#000000" stroke="rgb(0, 0, 0)" stroke-miterlimit="10" pointer-events="all"/><path d="M 33.18 26.11 L 26.11 33.18 L 10.25 17.32 L 2.83 24.75 L 0.35 0.35 L 24.75 2.83 L 17.32 10.25 Z" fill="#000000" stroke="rgb(0, 0, 0)" stroke-miterlimit="10" pointer-events="all"/></g></svg>